Normalized EMG Linear Envelopes
nRows=286
nColumns=4

endheader
time	 med_gas_r	  soleus_r	 tib_ant_r	
1.43044	  0.017359	  0.167963	  0.034208	
1.46371	  0.017079	  0.167879	  0.033655	
1.49698	  0.016860	  0.167538	  0.033204	
1.53024	  0.016724	  0.166845	  0.032896	
1.56351	  0.016685	  0.165673	  0.032738	
1.59677	  0.016749	  0.163915	  0.032720	
1.63004	  0.016915	  0.161559	  0.032833	
1.66331	  0.017159	  0.158764	  0.033065	
1.69657	  0.017432	  0.155903	  0.033377	
1.72984	  0.017675	  0.153503	  0.033707	
1.7631	  0.017844	  0.152044	  0.034001	
1.79637	  0.017933	  0.151686	  0.034236	
1.82964	  0.017959	  0.152142	  0.034422	
1.8629	  0.017943	  0.152855	  0.034577	
1.89617	  0.017884	  0.153377	  0.034709	
1.92944	  0.017771	  0.153672	  0.034819	
1.9627	  0.017602	  0.154063	  0.034906	
1.99597	  0.017400	  0.154870	  0.034964	
2.02923	  0.017209	  0.156084	  0.034964	
2.0625	  0.017068	  0.157409	  0.034853	
2.09577	  0.016992	  0.158607	  0.034596	
2.12903	  0.016967	  0.159755	  0.034226	
2.1623	  0.016960	  0.161097	  0.033850	
2.19556	  0.016941	  0.162678	  0.033610	
2.22883	  0.016892	  0.164154	  0.033597	
2.2621	  0.016815	  0.164992	  0.033813	
2.29536	  0.016719	  0.164864	  0.034156	
2.32863	  0.016618	  0.163868	  0.034468	
2.3619	  0.016521	  0.162488	  0.034604	
2.39516	  0.016436	  0.161367	  0.034502	
2.42843	  0.016375	  0.161069	  0.034214	
2.46169	  0.016357	  0.161873	  0.033877	
2.49496	  0.016412	  0.163648	  0.033642	
2.52823	  0.016572	  0.165893	  0.033610	
2.56149	  0.016855	  0.167980	  0.033802	
2.59476	  0.017243	  0.169464	  0.034161	
2.62802	  0.017680	  0.170202	  0.034579	
2.66129	  0.018088	  0.170244	  0.034928	
2.69456	  0.018408	  0.169677	  0.035114	
2.72782	  0.018610	  0.168616	  0.035114	
2.76109	  0.018699	  0.167309	  0.034974	
2.79435	  0.018704	  0.166105	  0.034772	
2.82762	  0.018662	  0.165254	  0.034562	
2.86089	  0.018622	  0.164698	  0.034344	
2.89415	  0.018626	  0.164093	  0.034070	
2.92742	  0.018697	  0.163070	  0.033685	
2.96069	  0.018821	  0.161497	  0.033167	
2.99395	  0.018959	  0.159553	  0.032543	
3.02722	  0.019068	  0.157585	  0.031876	
3.06048	  0.019124	  0.155905	  0.031248	
3.09375	  0.019125	  0.154689	  0.030742	
3.12702	  0.019079	  0.154034	  0.030440	
3.16028	  0.018988	  0.154069	  0.030404	
3.19355	  0.018847	  0.154998	  0.030640	
3.22681	  0.018653	  0.156998	  0.031080	
3.26008	  0.018423	  0.160089	  0.031604	
3.29335	  0.018189	  0.164068	  0.032089	
3.32661	  0.017987	  0.168571	  0.032452	
3.35988	  0.017835	  0.173128	  0.032657	
3.39315	  0.017729	  0.177190	  0.032717	
3.42641	  0.017651	  0.180171	  0.032691	
3.45968	  0.017590	  0.181616	  0.032666	
3.49294	  0.017549	  0.181421	  0.032734	
3.52621	  0.017550	  0.179917	  0.032959	
3.55948	  0.017607	  0.177697	  0.033356	
3.59274	  0.017711	  0.175307	  0.033884	
3.62601	  0.017830	  0.173043	  0.034453	
3.65927	  0.017930	  0.170974	  0.034940	
3.69254	  0.017999	  0.169106	  0.035218	
3.72581	  0.018053	  0.167492	  0.035205	
3.75907	  0.018119	  0.166246	  0.034908	
3.79234	  0.018214	  0.165465	  0.034428	
3.8256	  0.018328	  0.165164	  0.033929	
3.85887	  0.018424	  0.165276	  0.033548	
3.89214	  0.018453	  0.165678	  0.033339	
3.9254	  0.018389	  0.166229	  0.033265	
3.95867	  0.018243	  0.166768	  0.033246	
3.99194	  0.018062	  0.167109	  0.033226	
4.0252	  0.017901	  0.167078	  0.033195	
4.05847	  0.017795	  0.166593	  0.033178	
4.09173	  0.017742	  0.165684	  0.033192	
4.125	  0.017718	  0.164405	  0.033209	
4.15827	  0.017701	  0.162721	  0.033169	
4.19153	  0.017688	  0.160504	  0.033020	
4.2248	  0.017699	  0.157681	  0.032768	
4.25806	  0.017771	  0.154389	  0.032492	
4.29133	  0.017930	  0.151010	  0.032309	
4.3246	  0.018185	  0.148108	  0.032306	
4.35786	  0.018513	  0.146329	  0.032489	
4.39113	  0.018866	  0.146261	  0.032790	
4.4244	  0.019181	  0.148210	  0.033123	
4.45766	  0.019395	  0.151958	  0.033443	
4.49093	  0.019469	  0.156719	  0.033751	
4.52419	  0.019399	  0.161439	  0.034064	
4.55746	  0.019215	  0.165275	  0.034388	
4.59073	  0.018967	  0.167930	  0.034721	
4.62399	  0.018707	  0.169600	  0.035084	
4.65726	  0.018482	  0.170633	  0.035520	
4.69052	  0.018325	  0.171222	  0.036045	
4.72379	  0.018259	  0.171361	  0.036601	
4.75706	  0.018301	  0.171039	  0.037042	
4.79032	  0.018458	  0.170375	  0.037192	
4.82359	  0.018723	  0.169535	  0.036950	
4.85685	  0.019062	  0.168535	  0.036366	
4.89012	  0.019409	  0.167227	  0.035614	
4.92339	  0.019685	  0.165502	  0.034903	
4.95665	  0.019846	  0.163500	  0.034379	
4.98992	  0.019909	  0.161580	  0.034096	
5.02319	  0.019933	  0.160092	  0.034050	
5.05645	  0.019967	  0.159227	  0.034212	
5.08972	  0.020005	  0.159030	  0.034530	
5.12298	  0.019994	  0.159485	  0.034913	
5.15625	  0.019887	  0.160503	  0.035225	
5.18952	  0.019683	  0.161850	  0.035336	
5.22278	  0.019429	  0.163131	  0.035193	
5.25605	  0.019189	  0.163909	  0.034846	
5.28931	  0.019016	  0.163864	  0.034419	
5.32258	  0.018937	  0.162911	  0.034041	
5.35585	  0.018950	  0.161229	  0.033803	
5.38911	  0.019026	  0.159188	  0.033758	
5.42238	  0.019109	  0.157239	  0.033934	
5.45565	  0.019137	  0.155814	  0.034332	
5.48891	  0.019082	  0.155269	  0.034919	
5.52218	  0.018977	  0.155804	  0.035625	
5.55544	  0.018906	  0.157339	  0.036365	
5.58871	  0.018945	  0.159481	  0.037051	
5.62198	  0.019103	  0.161671	  0.037600	
5.65524	  0.019317	  0.163453	  0.037933	
5.68851	  0.019492	  0.164618	  0.037978	
5.72177	  0.019556	  0.165098	  0.037680	
5.75504	  0.019488	  0.164775	  0.037025	
5.78831	  0.019305	  0.163454	  0.036058	
5.82157	  0.019033	  0.161061	  0.034885	
5.85484	  0.018695	  0.157841	  0.033653	
5.8881	  0.018316	  0.154361	  0.032525	
5.92137	  0.017945	  0.151297	  0.031654	
5.95464	  0.017647	  0.149197	  0.031168	
5.9879	  0.017484	  0.148338	  0.031135	
6.02117	  0.017484	  0.148706	  0.031530	
6.05444	  0.017639	  0.150067	  0.032233	
6.0877	  0.017914	  0.152080	  0.033068	
6.12097	  0.018270	  0.154382	  0.033862	
6.15423	  0.018666	  0.156614	  0.034490	
6.1875	  0.019058	  0.158405	  0.034892	
6.22077	  0.019391	  0.159421	  0.035073	
6.25403	  0.019604	  0.159496	  0.035101	
6.2873	  0.019659	  0.158777	  0.035095	
6.32056	  0.019548	  0.157692	  0.035178	
6.35383	  0.019294	  0.156740	  0.035407	
6.3871	  0.018934	  0.156247	  0.035732	
6.42036	  0.018505	  0.156281	  0.036016	
6.45363	  0.018056	  0.156744	  0.036116	
6.4869	  0.017658	  0.157481	  0.035977	
6.52016	  0.017394	  0.158304	  0.035654	
6.55343	  0.017320	  0.158988	  0.035263	
6.58669	  0.017435	  0.159336	  0.034907	
6.61996	  0.017673	  0.159293	  0.034623	
6.65323	  0.017944	  0.158988	  0.034390	
6.68649	  0.018180	  0.158666	  0.034165	
6.71976	  0.018366	  0.158595	  0.033921	
6.75302	  0.018528	  0.159012	  0.033649	
6.78629	  0.018708	  0.160089	  0.033341	
6.81956	  0.018931	  0.161851	  0.032977	
6.85282	  0.019191	  0.164092	  0.032534	
6.88609	  0.019442	  0.166385	  0.032023	
6.91935	  0.019623	  0.168239	  0.031529	
6.95262	  0.019680	  0.169317	  0.031193	
6.98589	  0.019599	  0.169569	  0.031141	
7.01915	  0.019401	  0.169173	  0.031415	
7.05242	  0.019133	  0.168386	  0.031950	
7.08569	  0.018840	  0.167426	  0.032620	
7.11895	  0.018559	  0.166488	  0.033308	
7.15222	  0.018322	  0.165787	  0.033945	
7.18548	  0.018155	  0.165541	  0.034516	
7.21875	  0.018068	  0.165880	  0.035046	
7.25202	  0.018056	  0.166746	  0.035563	
7.28528	  0.018095	  0.167866	  0.036067	
7.31855	  0.018156	  0.168814	  0.036496	
7.35181	  0.018202	  0.169158	  0.036757	
7.38508	  0.018187	  0.168637	  0.036783	
7.41835	  0.018078	  0.167261	  0.036590	
7.45161	  0.017866	  0.165291	  0.036253	
7.48488	  0.017591	  0.163133	  0.035860	
7.51815	  0.017329	  0.161204	  0.035457	
7.55141	  0.017160	  0.159800	  0.035067	
7.58468	  0.017139	  0.158990	  0.034726	
7.61794	  0.017276	  0.158594	  0.034496	
7.65121	  0.017550	  0.158317	  0.034427	
7.68448	  0.017919	  0.157970	  0.034496	
7.71774	  0.018344	  0.157640	  0.034603	
7.75101	  0.018787	  0.157659	  0.034629	
7.78427	  0.019221	  0.158376	  0.034520	
7.81754	  0.019619	  0.159884	  0.034315	
7.85081	  0.019963	  0.161916	  0.034117	
7.88407	  0.020235	  0.163986	  0.034016	
7.91734	  0.020420	  0.165646	  0.034042	
7.9506	  0.020491	  0.166666	  0.034172	
7.98387	  0.020421	  0.167019	  0.034385	
8.01714	  0.020201	  0.166736	  0.034698	
8.0504	  0.019860	  0.165821	  0.035176	
8.08367	  0.019469	  0.164304	  0.035877	
8.11694	  0.019110	  0.162361	  0.036783	
8.1502	  0.018838	  0.160362	  0.037766	
8.18347	  0.018679	  0.158754	  0.038612	
8.21673	  0.018636	  0.157866	  0.039103	
8.25	  0.018698	  0.157774	  0.039096	
8.28327	  0.018832	  0.158336	  0.038563	
8.31653	  0.018979	  0.159349	  0.037575	
8.3498	  0.019078	  0.160692	  0.036273	
8.38306	  0.019109	  0.162346	  0.034837	
8.41633	  0.019108	  0.164303	  0.033467	
8.4496	  0.019138	  0.166465	  0.032344	
8.48286	  0.019243	  0.168638	  0.031587	
8.51613	  0.019409	  0.170617	  0.031211	
8.5494	  0.019578	  0.172294	  0.031131	
8.58266	  0.019692	  0.173682	  0.031202	
8.61593	  0.019742	  0.174819	  0.031287	
8.64919	  0.019763	  0.175654	  0.031304	
8.68246	  0.019801	  0.176037	  0.031250	
8.71573	  0.019870	  0.175863	  0.031173	
8.74899	  0.019936	  0.175229	  0.031149	
8.78226	  0.019956	  0.174431	  0.031248	
8.81552	  0.019911	  0.173752	  0.031504	
8.84879	  0.019819	  0.173194	  0.031905	
8.88206	  0.019710	  0.172425	  0.032396	
8.91532	  0.019597	  0.171025	  0.032911	
8.94859	  0.019473	  0.168862	  0.033411	
8.98185	  0.019326	  0.166246	  0.033889	
9.01512	  0.019162	  0.163734	  0.034361	
9.04839	  0.019002	  0.161741	  0.034833	
9.08165	  0.018875	  0.160298	  0.035290	
9.11492	  0.018799	  0.159136	  0.035696	
9.14819	  0.018781	  0.157996	  0.036004	
9.18145	  0.018812	  0.156860	  0.036169	
9.21472	  0.018874	  0.155941	  0.036172	
9.24798	  0.018955	  0.155482	  0.036023	
9.28125	  0.019054	  0.155563	  0.035740	
9.31452	  0.019173	  0.156040	  0.035334	
9.34778	  0.019303	  0.156648	  0.034815	
9.38105	  0.019417	  0.157130	  0.034228	
9.41431	  0.019485	  0.157286	  0.033678	
9.44758	  0.019491	  0.156969	  0.033299	
9.48085	  0.019448	  0.156131	  0.033176	
9.51411	  0.019391	  0.154913	  0.033290	
9.54738	  0.019345	  0.153638	  0.033529	
9.58065	  0.019309	  0.152643	  0.033764	
9.61391	  0.019248	  0.152098	  0.033934	
9.64718	  0.019122	  0.152011	  0.034065	
9.68044	  0.018913	  0.152410	  0.034223	
9.71371	  0.018643	  0.153474	  0.034431	
9.74698	  0.018367	  0.155467	  0.034625	
9.78024	  0.018143	  0.158507	  0.034676	
9.81351	  0.018017	  0.162348	  0.034466	
9.84677	  0.018005	  0.166318	  0.033955	
9.88004	  0.018109	  0.169468	  0.033221	
9.91331	  0.018330	  0.170923	  0.032458	
9.94657	  0.018676	  0.170284	  0.031935	
9.97984	  0.019164	  0.167850	  0.031935	
10.0131	  0.019814	  0.164475	  0.032680	
10.0464	  0.020644	  0.161147	  0.034301	
10.0796	  0.021664	  0.158576	  0.036872	
10.1129	  0.022852	  0.157042	  0.040483	
10.1462	  0.024122	  0.156518	  0.045230	
10.1794	  0.025325	  0.156901	  0.051008	
10.2127	  0.026305	  0.158174	  0.057211	
10.246	  0.026993	  0.160385	  0.062641	
10.2792	  0.027456	  0.163473	  0.065930	
10.3125	  0.027834	  0.167095	  0.066283	
10.3458	  0.028213	  0.170651	  0.064020	
10.379	  0.028541	  0.173512	  0.060457	
10.4123	  0.028686	  0.175300	  0.057236	
10.4456	  0.028561	  0.175975	  0.055601	
10.4788	  0.028204	  0.175688	  0.055982	
10.5121	  0.027745	  0.174580	  0.057921	
10.5454	  0.027328	  0.172763	  0.060253	
10.5786	  0.027082	  0.170468	  0.061549	
10.6119	  0.027139	  0.168135	  0.060765	
10.6452	  0.027594	  0.166272	  0.057751	
10.6784	  0.028405	  0.165183	  0.053256	
10.7117	  0.029337	  0.164813	  0.048431	
10.745	  0.030066	  0.164820	  0.044254	
10.7782	  0.030375	  0.164772	  0.041254	
10.8115	  0.030281	  0.164350	  0.039606	
10.8448	  0.029976	  0.163492	  0.039352	
10.878	  0.029681	  0.162454	  0.040554	
10.9113	  0.029518	  0.161733	  0.043306	
